<?xml version="1.0" encoding="iso-8859-1"?>
<!-- Generator: Adobe Illustrator 19.0.0, SVG Export Plug-In . SVG Version: 6.00 Build 0)  -->
<svg version="1.1" id="Layer_1" xmlns="http://www.w3.org/2000/svg" xmlns:xlink="http://www.w3.org/1999/xlink" x="0px" y="0px"
	 viewBox="0 0 512 512" style="enable-background:new 0 0 512 512;" xml:space="preserve">
<path style="fill:#80bc51;" d="M473.043,411.826V16.696C473.043,7.473,466.245,0,457.866,0h-288.38H128v411.826H473.043z"/>
<path style="fill:#699C44	;" d="M105.739,0C68.913,0,38.957,29.956,38.957,66.783v378.435c0,9.223,7.479,16.696,16.696,16.696
	s16.696-7.473,16.696-16.696c0-18.413,14.978-33.391,33.391-33.391h33.391V0H105.739z"/>
<path style="fill:#7bb64f;" d="M457.866,0H294.957v400.696h178.087v-384C473.043,7.473,466.245,0,457.866,0z"/>
<path style="fill:#978bd2;" d="M261.684,294.957v-83.478h-50.087c-9.22,0-16.696-7.475-16.696-16.696v-33.391
	c0-9.22,7.475-16.696,16.696-16.696h50.087V94.609c0-9.22,7.475-16.696,16.696-16.696h33.391c9.22,0,16.473,7.475,16.473,16.696
	v50.087h50.31c9.22,0,16.473,7.475,16.473,16.696v33.391c0,9.22-7.253,16.696-16.473,16.696h-50.31v83.478
	c0,9.22-7.253,16.696-16.473,16.696H278.38C269.159,311.652,261.684,304.177,261.684,294.957z"/>
<path style="fill:#7a6bcf;" d="M378.554,144.696h-50.31V94.609c0-9.22-7.253-16.696-16.473-16.696h-16.815v233.739h16.815
	c9.22,0,16.473-7.475,16.473-16.696v-83.478h50.31c9.22,0,16.473-7.475,16.473-16.696v-33.391
	C395.027,152.171,387.774,144.696,378.554,144.696z"/>
<path style="fill:#7bb64f;" d="M456.348,512H105.739c-36.826,0-66.783-29.956-66.783-66.783s29.956-66.783,66.783-66.783h350.609
	c9.217,0,16.696,7.473,16.696,16.696v100.174C473.043,504.527,465.565,512,456.348,512z"/>
<path style="fill:#e4e4e4;" d="M105.739,411.826c-18.413,0-33.391,14.978-33.391,33.391s14.978,33.391,33.391,33.391h367.304
	v-66.783H105.739z"/>
<rect x="294.957" y="411.826" style="fill:#c3c3c9;" width="178.087" height="66.783"/>
<g>
</g>
<g>
</g>
<g>
</g>
<g>
</g>
<g>
</g>
<g>
</g>
<g>
</g>
<g>
</g>
<g>
</g>
<g>
</g>
<g>
</g>
<g>
</g>
<g>
</g>
<g>
</g>
<g>
</g>
</svg>
