<?xml version="1.0" encoding="iso-8859-1"?>
<!-- Generator: Adobe Illustrator 19.0.0, SVG Export Plug-In . SVG Version: 6.00 Build 0)  -->
<svg version="1.1" id="Layer_1" xmlns="http://www.w3.org/2000/svg" xmlns:xlink="http://www.w3.org/1999/xlink" x="0px" y="0px"
	 viewBox="0 0 485 485" style="enable-background:new 0 0 485 485;" xml:space="preserve" fill="#413d43">
<g>
	<path d="M0,0v485h485V0H0z M455,455H30V30h425V455z"/>
	<path d="M118.75,401.25c19.299,0,35-15.701,35-35s-15.701-35-35-35s-35,15.701-35,35S99.451,401.25,118.75,401.25z"/>
	<path d="M242.5,277.5c19.299,0,35-15.701,35-35s-15.701-35-35-35c-19.299,0-35,15.701-35,35S223.201,277.5,242.5,277.5z"/>
	<path d="M366.25,153.75c19.299,0,35-15.701,35-35s-15.701-35-35-35s-35,15.701-35,35S346.951,153.75,366.25,153.75z"/>
</g>
<g>
</g>
<g>
</g>
<g>
</g>
<g>
</g>
<g>
</g>
<g>
</g>
<g>
</g>
<g>
</g>
<g>
</g>
<g>
</g>
<g>
</g>
<g>
</g>
<g>
</g>
<g>
</g>
<g>
</g>
</svg>
