<?xml version="1.0" encoding="iso-8859-1"?>
<!-- Generator: Adobe Illustrator 18.0.0, SVG Export Plug-In . SVG Version: 6.00 Build 0)  -->
<!DOCTYPE svg PUBLIC "-//W3C//DTD SVG 1.1//EN" "http://www.w3.org/Graphics/SVG/1.1/DTD/svg11.dtd">
<svg version="1.1" id="Capa_1" xmlns="http://www.w3.org/2000/svg" xmlns:xlink="http://www.w3.org/1999/xlink" x="0px" y="0px"
	 viewBox="0 0 225 225" style="enable-background:new 0 0 225 225;" xml:space="preserve" fill="#413d43">
<path d="M34.642,152.451l-20.645,20.645l37.908,37.908l20.644-20.645c4.225,2.17,8.619,3.99,13.146,5.443V225h53.61v-29.198
	c4.527-1.454,8.921-3.273,13.145-5.443l20.644,20.645l37.909-37.908l-20.646-20.646c2.17-4.225,3.989-8.618,5.443-13.145H225V85.695
	h-29.199c-1.454-4.527-3.273-8.92-5.443-13.145l20.646-20.646l-37.908-37.908l-20.645,20.645c-4.225-2.17-8.619-3.99-13.145-5.443V0
	h-53.61v29.198c-4.527,1.454-8.921,3.273-13.146,5.443L51.904,13.997L13.997,51.905l20.645,20.645
	c-2.17,4.225-3.99,8.619-5.443,13.146H0v53.609h29.198C30.652,143.831,32.471,148.226,34.642,152.451z M15,100.695h25.728
	l1.412-5.696c1.738-7.015,4.508-13.703,8.231-19.877l3.031-5.026L35.209,51.905L51.904,35.21l18.192,18.192l5.026-3.031
	c6.174-3.723,12.862-6.493,19.877-8.231l5.696-1.412V15h23.61v25.728l5.695,1.412c7.016,1.739,13.703,4.508,19.877,8.232
	l5.026,3.031l18.191-18.192l16.695,16.695l-18.194,18.192l3.031,5.026c3.723,6.173,6.492,12.86,8.231,19.876l1.411,5.696H210v23.609
	h-25.73l-1.411,5.696c-1.739,7.016-4.509,13.703-8.231,19.876l-3.031,5.026l18.194,18.193l-16.696,16.695l-18.19-18.192
	l-5.026,3.031c-6.173,3.723-12.86,6.492-19.877,8.231l-5.695,1.412V210h-23.61v-25.728l-5.696-1.412
	c-7.015-1.738-13.703-4.508-19.877-8.231l-5.026-3.031L51.905,189.79L35.21,173.096l18.192-18.192l-3.031-5.026
	c-3.723-6.174-6.493-12.862-8.231-19.877l-1.412-5.696H15V100.695z M112.5,153.25c22.47,0,40.75-18.28,40.75-40.75
	s-18.28-40.75-40.75-40.75c-22.47,0-40.75,18.28-40.75,40.75S90.03,153.25,112.5,153.25z M112.5,86.75
	c14.198,0,25.75,11.551,25.75,25.75s-11.552,25.75-25.75,25.75c-14.199,0-25.75-11.551-25.75-25.75S98.301,86.75,112.5,86.75z"/>
<g>
</g>
<g>
</g>
<g>
</g>
<g>
</g>
<g>
</g>
<g>
</g>
<g>
</g>
<g>
</g>
<g>
</g>
<g>
</g>
<g>
</g>
<g>
</g>
<g>
</g>
<g>
</g>
<g>
</g>
</svg>
